# xmcd
#
# Track frame offsets: 
#        150
#        13317
#        30377
#        42267
#
# Disc length: 732 seconds
#
# Revision: 0
# Processed by: cddbd v1.5.2PL0 Copyright (c) Steve Scherf et al.
# Submitted via: ExactAudioCopy v0.95b4
#
DISCID=2802da04
DTITLE=Stevie Wonder - Vintage Gold
DYEAR=1989
DGENRE=R&B
TTITLE0=Uptight
TTITLE1=Blowin' in the Wind
TTITLE2=I Was Made to Love Her
TTITLE3=For Once in My Life
EXTD=
EXTT0=
EXTT1=
EXTT2=
EXTT3=
PLAYORDER=
